<svg width="79" height="56" viewBox="0 0 79 56" version="1.1" xmlns="http://www.w3.org/2000/svg" xmlns:xlink="http://www.w3.org/1999/xlink" xmlns:figma="http://www.figma.com/figma/ns">
<title>lion</title>
<desc>Created using Figma</desc>
<g id="Canvas" transform="translate(27 101)" figma:type="canvas">
<g id="lion" style="mix-blend-mode:normal;" figma:type="frame">
<g id="Group" style="mix-blend-mode:normal;" figma:type="frame">
<g id="Vector" style="mix-blend-mode:normal;" figma:type="vector">
<use xlink:href="#path0_fill" transform="translate(-27 -101)" style="mix-blend-mode:normal;"/>
</g>
</g>
</g>
</g>
<defs>
<path id="path0_fill" d="M 78.3656 17.4638L 66.5405 6.41993L 65.3363 0.790903C 65.2777 0.516003 65.1058 0.278692 64.8636 0.137092C 64.6224 -0.00499757 64.3324 -0.0381965 64.0619 0.0448035L 37.4674 8.29822L 26.2913 8.29822L 25.9896 8.29822L 4.68881 8.29822C 4.3519 8.29822 4.03842 8.46765 3.85287 8.7489C 3.75955 8.89117 3.70602 9.05224 3.69265 9.21673L 3.69174 9.21669L 0.00325575 54.3978C -0.0328743 54.8471 0.234705 55.265 0.657555 55.4188C 0.769855 55.4599 0.886075 55.4794 1.00033 55.4794C 1.31771 55.4794 1.62435 55.328 1.81576 55.0585L 15.206 36.196L 23.266 54.8754C 23.4261 55.247 23.7904 55.4794 24.1839 55.4794C 24.2425 55.4794 24.3031 55.474 24.3636 55.4633C 24.8216 55.3798 25.1615 54.9911 25.183 54.5258L 26.0677 35.5575L 36.6195 35.5575L 36.6195 54.4794C 36.6195 54.9096 36.8939 55.2914 37.3021 55.4276C 37.4066 55.4628 37.513 55.4794 37.6195 55.4794C 37.9271 55.4794 38.2259 55.3368 38.4183 55.0814L 48.5795 41.5991L 61.9339 55.1806C 62.1263 55.3764 62.3851 55.4794 62.6468 55.4794C 62.7982 55.4794 62.9505 55.4452 63.0931 55.3744C 63.4798 55.1815 63.6996 54.7606 63.6361 54.3324L 61.2261 38.1049L 70.1345 26.6112L 77.683 26.6112C 78.2357 26.6112 78.683 26.1635 78.683 25.6112L 78.683 18.1947C 78.6829 17.9179 78.5677 17.6532 78.3656 17.4638ZM 2.2933 50.9305L 5.35958 13.3762L 14.2787 34.0468L 2.2933 50.9305ZM 23.387 50.1078L 6.20932 10.2982L 25.2435 10.2982L 23.387 50.1078ZM 27.2459 10.2982L 36.8119 10.2982L 41.8198 33.5575L 26.161 33.5575L 27.2459 10.2982ZM 38.6195 51.4911L 38.6195 35.5575L 42.6389 35.5575L 47.1613 40.1569L 38.6195 51.4911ZM 43.9749 34.0634L 39.5023 13.2929L 59.224 38.2406L 61.2064 51.5883L 43.9749 34.0634ZM 60.1663 36.208L 39.3075 9.82155L 63.6097 2.27919L 68.5531 25.3871L 60.1663 36.208ZM 76.6829 24.6112L 70.4321 24.6112L 67.2722 9.84028L 76.683 18.6293L 76.683 24.6112L 76.6829 24.6112Z"/>
</defs>
</svg>
